PathFileType	4	(x/y/z)	S02_M20_T05
DataRate	CameraRate	NumFrames	NumMarkers	Units	OrigDataRate	OrigDataStartFrame	OrigNumFrames
240	240	8	51	mm	240	1	459
Frame#	Time	Sternum			R.Acromium			L.Acromium			Top.Head			R.ASIS			L.ASIS			R.PSIS			L.PSIS			R.Great.Tro			L.Great.Tro			R.Iliac.Crest			L.Iliac.Crest			V.Sacral			R.Thigh.Upper.Post			R.Thigh.Lower.Ant			R.Thigh.Lower.Post			R.Thigh.Upper.Ant			R.Knee.Lat			R.Knee.Med			R.Shank.Upper.Post			R.Shank.Lower.Ant			R.Shank.Lower.Post			R.Shank.Upper.Ant			R.Ankle.Lat			R.Ankle.Med			R.Heel.Upper			R.Heel.Med			R.Heel.Lat			R.Toe.Lat			R.Toe.Med			R.Toe.Tip			L.Thigh.Upper.Post			L.Thigh.Lower.Ant			L.Thigh.Lower.Post			L.Thigh.Upper.Ant			L.Knee.Lat			L.Knee.Med			L.Shank.Upper.Post			L.Shank.Lower.Ant			L.Shank.Lower.Post			L.Shank.Upper.Ant			L.Ankle.Lat			L.Ankle.Med			L.Heel.Upper			L.Heel.Med			L.Heel.Lat			L.Toe.Lat			L.Toe.Med			L.Toe.Tip			Cervical.Spine			Back			
		X1	Y1	Z1	X2	Y2	Z2	X3	Y3	Z3	X4	Y4	Z4	X5	Y5	Z5	X6	Y6	Z6	X7	Y7	Z7	X8	Y8	Z8	X9	Y9	Z9	X10	Y10	Z10	X11	Y11	Z11	X12	Y12	Z12	X13	Y13	Z13	X14	Y14	Z14	X15	Y15	Z15	X16	Y16	Z16	X17	Y17	Z17	X18	Y18	Z18	X19	Y19	Z19	X20	Y20	Z20	X21	Y21	Z21	X22	Y22	Z22	X23	Y23	Z23	X24	Y24	Z24	X25	Y25	Z25	X26	Y26	Z26	X27	Y27	Z27	X28	Y28	Z28	X29	Y29	Z29	X30	Y30	Z30	X31	Y31	Z31	X32	Y32	Z32	X33	Y33	Z33	X34	Y34	Z34	X35	Y35	Z35	X36	Y36	Z36	X37	Y37	Z37	X38	Y38	Z38	X39	Y39	Z39	X40	Y40	Z40	X41	Y41	Z41	X42	Y42	Z42	X43	Y43	Z43	X44	Y44	Z44	X45	Y45	Z45	X46	Y46	Z46	X47	Y47	Z47	X48	Y48	Z48	X49	Y49	Z49	X50	Y50	Z50	X51	Y51	Z51	

1	0	NaN	NaN	NaN	-1654.5	1297	465.98	-1639.6	1290.4	170.59	-1601	1574.1	302.18	NaN	NaN	NaN	NaN	NaN	NaN	-1606.3	850.21	323.22	NaN	NaN	NaN	-1711.7	785.17	523.45	-1590.7	790.01	135.99	-1705	930.68	483.65	-1609.5	922.15	150.7	-1787.6	873.07	283.63	-1750.4	590.83	506.81	-1728.6	495.55	480.32	-1800.4	515.43	480.44	-1677.6	576.12	499.31	-1818.5	436.37	471.3	-1800.8	414.55	328.72	NaN	NaN	NaN	-1982.6	201.16	427.59	-2038.2	250.8	428.83	NaN	NaN	NaN	-2082.7	161.7	416.96	-2056.2	164.91	335.83	-2132.9	180.83	358.12	-2134.6	146.9	329.81	-2150.7	151.83	391.51	-2026	53.184	445.68	-1997.3	40.645	339.08	-1948.6	56.521	393.63	-1531.5	566.09	163.08	-1428.1	531.64	181.57	-1493.3	486.9	189.6	-1475.1	610.87	155.23	-1413.6	451.55	191.31	-1421.1	446.34	328.25	-1433.3	262.21	191.21	NaN	NaN	NaN	-1406.5	194.22	205.91	-1368.2	275.3	189.55	-1337.2	96.321	213.61	-1325.1	96.743	296.87	NaN	NaN	NaN	NaN	NaN	NaN	-1374	30.272	224.45	-1213.3	61.167	189.49	-1195.7	81.13	294.49	-1144.2	114.34	246.34	-1722	1353.7	316.36	-1798	1100.2	320.21
2	0.0041667	NaN	NaN	NaN	-1648.6	1297.2	464.92	-1633.5	1290.4	169.51	-1595.6	1574.3	300.71	NaN	NaN	NaN	NaN	NaN	NaN	-1600.7	849.75	322.47	NaN	NaN	NaN	-1705	784.35	523.03	-1584.6	790.54	135	-1698.2	930.55	483.24	-1603.3	922.26	149.78	-1781.2	872.84	283.31	-1743.7	590.32	506.67	-1721.6	494.97	480.78	-1793.5	514.76	480.63	-1671.9	575.4	500.16	-1811.8	435.86	471.84	-1793.7	413.36	329.52	NaN	NaN	NaN	-1978.2	202.52	428.37	-2033.1	252.69	429.22	NaN	NaN	NaN	-2078.7	164.03	417.54	-2051.8	166.81	336.52	-2127.9	184.42	358.64	-2130.4	151.07	330.03	-2146.4	156.08	391.77	-2025.1	54.206	445.85	-1996.6	41.367	339.18	-1948.1	56.263	393.87	-1526.3	566.4	162.56	-1423	531.77	181.02	-1488.4	487.21	189.25	-1470	610.95	154.59	-1408.5	451.85	191.03	-1416.9	446.63	327.7	-1429.6	262.81	191.26	NaN	NaN	NaN	-1403.8	194.47	206.09	-1364.4	275.15	189.59	-1335.5	96.039	213.74	-1323.8	96.42	297.13	NaN	NaN	NaN	NaN	NaN	NaN	-1372.3	30.19	224.66	-1212.3	59.264	189.87	-1194.5	78.786	295.01	-1142.5	111.12	247.03	-1716.2	1353.7	315.13	-1791.6	1100.2	319.29
3	0.0083333	NaN	NaN	NaN	-1642.5	1297.5	463.82	-1627.1	1290.4	168.4	-1590	1574.6	299.19	NaN	NaN	NaN	NaN	NaN	NaN	-1594.9	849.33	321.72	NaN	NaN	NaN	-1698	783.49	522.59	-1578.4	791.13	133.97	-1691.1	930.42	482.83	-1597	922.4	148.84	-1774.6	872.63	283	-1736.8	589.8	506.53	-1714.3	494.38	481.29	-1786.4	514.04	480.86	-1665.9	574.69	500.98	-1804.7	435.31	472.43	-1786.3	412.11	330.38	NaN	NaN	NaN	-1973.6	203.96	429.21	-2027.7	254.65	429.63	NaN	NaN	NaN	-2074.4	166.46	418.16	-2047	168.81	337.25	-2122.4	188.2	359.19	-2125.8	155.45	330.28	-2141.8	160.55	392.06	-2024.1	55.341	446.03	-1995.8	42.171	339.28	-1947.5	55.977	394.12	-1520.9	566.76	161.99	-1417.6	531.95	180.43	-1483.3	487.58	188.85	-1464.6	611.09	153.92	-1403	452.17	190.72	-1412.4	447	327.12	-1425.7	263.44	191.26	NaN	NaN	NaN	-1401	194.76	206.23	-1360.4	275	189.62	-1333.8	95.761	213.85	-1322.6	96.112	297.37	NaN	NaN	NaN	NaN	NaN	NaN	-1370.6	30.156	224.85	-1211.3	57.338	190.24	-1193.4	76.407	295.52	-1140.7	107.85	247.71	-1710.2	1353.8	313.86	-1785	1100.1	318.36
4	0.0125	NaN	NaN	NaN	-1636.1	1297.8	462.68	-1620.5	1290.4	167.26	-1584.2	1574.9	297.63	NaN	NaN	NaN	NaN	NaN	NaN	-1589.1	848.96	320.98	NaN	NaN	NaN	-1690.8	782.59	522.16	-1572	791.78	132.92	-1683.7	930.3	482.41	-1590.6	922.58	147.9	-1767.9	872.42	282.7	-1729.6	589.26	506.38	-1706.7	493.77	481.84	-1779	513.28	481.1	-1659.5	574	501.76	-1797.2	434.7	473.06	-1778.5	410.77	331.3	NaN	NaN	NaN	-1968.8	205.46	430.08	-2022.1	256.69	430.06	NaN	NaN	NaN	-2069.9	169	418.81	-2042	170.88	338	-2116.6	192.14	359.78	-2120.9	160.03	330.55	-2136.9	165.23	392.38	-2023	56.596	446.22	-1994.9	43.065	339.39	-1946.8	55.663	394.4	-1515.3	567.17	161.37	-1412.1	532.18	179.8	-1477.9	487.99	188.4	-1459	611.28	153.21	-1397.4	452.54	190.4	-1407.7	447.44	326.5	-1421.7	264.12	191.2	NaN	NaN	NaN	-1398.2	195.08	206.32	-1356.3	274.87	189.61	-1332	95.492	213.95	-1321.4	95.828	297.6	NaN	NaN	NaN	NaN	NaN	NaN	-1369.2	30.179	225.01	-1210.2	55.413	190.59	-1192.2	74.02	296.02	-1138.9	104.55	248.38	-1704	1354	312.57	-1778.1	1100.1	317.41
5	0.016667	NaN	NaN	NaN	-1629.6	1298.1	461.53	-1613.7	1290.5	166.09	-1578.2	1575.2	296.04	NaN	NaN	NaN	NaN	NaN	NaN	-1583.4	848.67	320.27	NaN	NaN	NaN	-1683.4	781.65	521.72	-1565.5	792.48	131.84	-1676.1	930.2	482	-1584.1	922.81	146.97	-1760.9	872.22	282.43	-1722.3	588.71	506.21	-1698.8	493.16	482.43	-1771.3	512.48	481.38	-1652.7	573.33	502.47	-1789.4	434.04	473.74	-1770.4	409.38	332.26	NaN	NaN	NaN	-1963.8	207.02	431	-2016.2	258.79	430.52	NaN	NaN	NaN	-2065.2	171.61	419.49	-2036.8	173.03	338.79	-2110.5	196.22	360.4	-2115.7	164.77	330.84	-2131.7	170.1	392.72	-2021.8	57.979	446.42	-1993.9	44.055	339.52	-1946.1	55.317	394.69	-1509.5	567.63	160.69	-1406.3	532.49	179.13	-1472.4	488.47	187.87	-1453.3	611.54	152.46	-1391.5	452.93	190.06	-1402.8	447.96	325.86	-1417.7	264.83	191.08	-1324.7	203.62	203.59	-1395.2	195.45	206.36	-1352.2	274.75	189.56	-1330.3	95.235	214.03	-1320.2	95.571	297.8	NaN	NaN	NaN	NaN	NaN	NaN	-1367.8	30.266	225.13	-1209.3	53.513	190.93	-1191	71.655	296.49	-1137.2	101.28	249.02	-1697.6	1354.1	311.25	-1771.1	1100.1	316.46
6	0.020833	NaN	NaN	NaN	-1623	1298.4	460.36	-1606.8	1290.5	164.91	-1572.1	1575.6	294.42	NaN	NaN	NaN	NaN	NaN	NaN	-1577.8	848.48	319.59	NaN	NaN	NaN	-1675.8	780.68	521.28	-1559	793.25	130.76	-1668.4	930.11	481.6	-1577.6	923.09	146.05	-1753.9	872.06	282.2	-1714.8	588.15	506.03	-1690.7	492.54	483.06	-1763.4	511.64	481.68	-1645.7	572.71	503.12	-1781.4	433.33	474.45	-1762	407.91	333.28	NaN	NaN	NaN	-1958.5	208.64	431.96	-2010	260.93	431	NaN	NaN	NaN	-2060.2	174.3	420.19	-2031.2	175.24	339.59	-2104	200.42	361.07	-2110.2	169.66	331.17	-2126.2	175.12	393.09	-2020.5	59.498	446.63	-1992.8	45.146	339.66	-1945.2	54.939	395	-1503.6	568.13	159.96	-1400.4	532.86	178.42	-1466.8	489	187.28	-1447.4	611.87	151.69	-1385.5	453.36	189.7	-1397.7	448.56	325.18	-1413.5	265.57	190.87	-1321.9	203.4	203.53	-1392.3	195.85	206.32	-1348	274.65	189.46	-1328.7	94.995	214.09	-1319	95.345	297.98	NaN	NaN	NaN	NaN	NaN	NaN	-1366.7	30.423	225.2	-1208.3	51.66	191.24	-1189.9	69.337	296.93	-1135.5	98.066	249.62	-1691.1	1354.3	309.92	-1764	1100.2	315.52
7	0.025	NaN	NaN	NaN	-1616.2	1298.8	459.17	-1599.8	1290.6	163.72	-1565.9	1575.9	292.79	NaN	NaN	NaN	NaN	NaN	NaN	-1572.4	848.42	318.97	NaN	NaN	NaN	-1668.2	779.69	520.84	-1552.5	794.07	129.67	-1660.6	930.04	481.21	-1571.1	923.43	145.16	-1746.8	871.92	282.01	-1707.2	587.59	505.85	-1682.3	491.92	483.73	-1755.2	510.75	482.02	-1638.4	572.13	503.68	-1773	432.56	475.2	-1753.3	406.39	334.34	NaN	NaN	NaN	-1953.1	210.31	432.96	-2003.6	263.11	431.5	NaN	NaN	NaN	-2054.9	177.04	420.92	-2025.5	177.51	340.42	-2097.2	204.74	361.77	-2104.3	174.68	331.52	-2120.4	180.29	393.49	-2019	61.16	446.85	-1991.5	46.344	339.82	-1944.3	54.527	395.32	-1497.5	568.68	159.17	-1394.4	533.3	177.66	-1461	489.59	186.62	-1441.4	612.27	150.89	-1379.5	453.81	189.31	-1392.4	449.25	324.47	-1409.4	266.34	190.59	-1319	203.17	203.45	-1389.3	196.29	206.22	-1343.7	274.56	189.33	-1327.1	94.773	214.13	-1317.9	95.15	298.12	-1377.6	60.373	252.93	NaN	NaN	NaN	-1365.7	30.647	225.24	-1207.4	49.872	191.52	-1188.8	67.088	297.34	-1133.9	94.934	250.19	-1684.5	1354.6	308.59	-1756.8	1100.3	314.59
8	0.029167	NaN	NaN	NaN	-1609.4	1299.2	457.98	-1592.8	1290.8	162.53	-1559.6	1576.3	291.16	NaN	NaN	NaN	NaN	NaN	NaN	-1567.3	848.51	318.41	NaN	NaN	NaN	-1660.4	778.68	520.41	-1546	794.94	128.59	-1652.7	930	480.84	-1564.7	923.82	144.3	-1739.7	871.81	281.86	-1699.6	587.02	505.65	-1673.7	491.32	484.43	-1746.9	509.84	482.39	-1630.7	571.61	504.17	-1764.4	431.74	475.99	-1744.3	404.81	335.45	NaN	NaN	NaN	-1947.6	212.02	433.99	-1996.9	265.32	432.03	NaN	NaN	NaN	-2049.4	179.83	421.66	-2019.4	179.82	341.26	-2090.1	209.14	362.51	-2098.1	179.81	331.9	-2114.2	185.57	393.93	-2017.4	62.968	447.07	-1990	47.652	339.99	-1943.2	54.08	395.66	-1491.5	569.28	158.33	-1388.4	533.8	176.86	-1455.2	490.23	185.88	-1435.4	612.73	150.05	-1373.3	454.27	188.89	-1386.9	450.01	323.74	-1405.3	267.13	190.21	-1316.1	202.94	203.36	-1386.4	196.77	206.04	-1339.5	274.48	189.14	-1325.5	94.57	214.15	-1316.7	94.983	298.24	-1377.2	60.795	252.84	NaN	NaN	NaN	-1364.9	30.937	225.24	-1206.6	48.165	191.77	-1187.8	64.929	297.71	-1132.3	91.91	250.71	-1677.8	1354.8	307.27	-1749.5	1100.4	313.7
